<svg id="Layer_3" enable-background="new 0 0 64 64" height="512" viewBox="0 0 64 64" width="512" xmlns="http://www.w3.org/2000/svg"><g><path d="m30 2h4v60h-4z" fill="#f2c351"/><path d="m30 2h2v60h-2z" fill="#f7d881"/><path d="m2 2h28v60h-28z" fill="#606060"/><path d="m34 2h28v60h-28z" fill="#606060"/><path d="m43 6h-4c-1.105 0-2 .895-2 2v10c0 1.105.895 2 2 2h4c1.105 0 2-.895 2-2v-10c0-1.105-.895-2-2-2z" fill="#e39854"/><path d="m45 10h-8v3l.891 1.336c.693 1.04 1.86 1.664 3.109 1.664 1.249 0 2.416-.624 3.109-1.664l.891-1.336z" fill="#c16b3f"/><g><path d="m40 10.001h2v3h-2z" fill="#d5cec2"/></g><path d="m57 26h-4c-1.105 0-2 .895-2 2v10c0 1.105.895 2 2 2h4c1.105 0 2-.895 2-2v-10c0-1.105-.895-2-2-2z" fill="#e47c6e"/><path d="m59 30h-8v3l.891 1.336c.693 1.04 1.86 1.664 3.109 1.664 1.249 0 2.416-.624 3.109-1.664l.891-1.336z" fill="#c66b60"/><g><path d="m54 30.001h2v3h-2z" fill="#d5cec2"/></g><path d="m11 58h-4c-1.105 0-2-.895-2-2v-10c0-1.105.895-2 2-2h4c1.105 0 2 .895 2 2v10c0 1.105-.895 2-2 2z" fill="#a8b0bc"/><path d="m13 54h-8v-3l.891-1.336c.693-1.04 1.86-1.664 3.109-1.664 1.249 0 2.416.624 3.109 1.664l.891 1.336z" fill="#758190"/><g><path d="m8 51h2v3h-2z" fill="#8892a0"/></g><path d="m25 38h-4c-1.105 0-2-.895-2-2v-10c0-1.105.895-2 2-2h4c1.105 0 2 .895 2 2v10c0 1.105-.895 2-2 2z" fill="#e47c6e"/><path d="m27 34h-8v-3l.891-1.336c.693-1.04 1.86-1.664 3.109-1.664 1.249 0 2.416.624 3.109 1.664l.891 1.336z" fill="#c66b60"/><g><path d="m22 31h2v3h-2z" fill="#d5cec2"/></g><path d="m25 20h-4c-1.105 0-2-.895-2-2v-10c0-1.105.895-2 2-2h4c1.105 0 2 .895 2 2v10c0 1.105-.895 2-2 2z" fill="#a8b0bc"/><path d="m27 16h-8v-3l.891-1.336c.693-1.04 1.86-1.664 3.109-1.664 1.249 0 2.416.624 3.109 1.664l.891 1.336z" fill="#758190"/><g><path d="m15 2h2v4h-2z" fill="#f2c351"/></g><g><path d="m15 10h2v4h-2z" fill="#f2c351"/></g><g><path d="m15 18h2v4h-2z" fill="#f2c351"/></g><g><path d="m15 26h2v4h-2z" fill="#f2c351"/></g><g><path d="m15 34h2v4h-2z" fill="#f2c351"/></g><g><path d="m15 42h2v4h-2z" fill="#f2c351"/></g><g><path d="m15 50h2v4h-2z" fill="#f2c351"/></g><g><path d="m15 58h2v4h-2z" fill="#f2c351"/></g><g><path d="m47 2h2v4h-2z" fill="#f2c351"/></g><g><path d="m47 10h2v4h-2z" fill="#f2c351"/></g><g><path d="m47 18h2v4h-2z" fill="#f2c351"/></g><g><path d="m47 26h2v4h-2z" fill="#f2c351"/></g><g><path d="m47 34h2v4h-2z" fill="#f2c351"/></g><g><path d="m47 42h2v4h-2z" fill="#f2c351"/></g><g><path d="m47 50h2v4h-2z" fill="#f2c351"/></g><g><path d="m47 58h2v4h-2z" fill="#f2c351"/></g><g><path d="m22 13h2v3h-2z" fill="#8892a0"/></g><g fill="#e7e4dd"><path d="m39 27v6h-2l4 4 4-4h-2v-6z"/><path d="m7 37v-6h-2l4-4 4 4h-2v6z"/></g></g></svg>