<svg id="Layer_1_1_" enable-background="new 0 0 64 64" height="512" viewBox="0 0 64 64" width="512" xmlns="http://www.w3.org/2000/svg"><path d="m58.847 27c-1.14 0-2.116.807-2.339 1.925-2.288 11.448-12.387 20.075-24.508 20.075s-22.22-8.627-24.508-20.075c-.223-1.118-1.199-1.925-2.339-1.925-1.561 0-2.689 1.466-2.327 2.984 3.148 13.199 15.011 23.016 29.174 23.016s26.026-9.817 29.174-23.016c.362-1.518-.766-2.984-2.327-2.984z" fill="#7da8de"/><path d="m55.388 15.196c.472 1.244.847 2.536 1.115 3.866.227 1.123 1.199 1.938 2.344 1.938h.398c1.493 0 2.599-1.348 2.36-2.821-.252-1.549-.624-3.059-1.103-4.519-.325-.989-1.246-1.66-2.286-1.66h-.564c-1.655 0-2.85 1.649-2.264 3.196z" fill="#7da8de"/><path d="m3.498 13.66c-.479 1.46-.851 2.97-1.103 4.519-.239 1.473.867 2.821 2.36 2.821h.398c1.145 0 2.117-.815 2.344-1.937.268-1.33.644-2.622 1.115-3.866.586-1.548-.609-3.197-2.264-3.197h-.564c-1.04 0-1.961.671-2.286 1.66z" fill="#7da8de"/><circle cx="32" cy="23" fill="#6389ba" r="20"/><path d="m47.973 11c-3.65-4.85-9.436-8-15.973-8-.918 0-1.815.083-2.7.203-.178.568-.275 1.171-.275 1.797 0 3.314 2.686 6 6 6z" fill="#aeca8d"/><path d="m39.525 26h-20.5c-1.71 0-3.086-1.431-2.996-3.161.085-1.623 1.542-2.839 3.166-2.839h2.83c1.215 0 2.176-1.083 1.973-2.336-.16-.983-1.084-1.664-2.08-1.664h-8.634c-.816 2.182-1.284 4.533-1.284 7 0 3.647.992 7.056 2.698 10h24.292c2.209 0 4-1.791 4-4-.243-1.696-1.702-3-3.465-3z" fill="#aeca8d"/><path d="m38.025 19.5c0 1.381 1.119 2.5 2.5 2.5h11.425c-.086-1.732-.369-3.411-.868-5h-10.557c-1.38 0-2.5 1.119-2.5 2.5z" fill="#aeca8d"/><path d="m44.437 40.411c-.62-.868-1.485-1.463-2.437-1.782v-4.629c0-1.105-.895-2-2-2h-3c0-1.105-.895-2-2-2h-6c-1.105 0-2 .895-2 2v1.767c0-.976-.791-1.767-1.767-1.767h-1.804c-.833 0-1.553.582-1.728 1.397l-2.129 9.934c-.364 1.7.004 3.476 1.015 4.891l2.261 3.166c.749 1.048 1.152 2.305 1.152 3.594v7.018h14v-8.204c0-1.143.489-2.231 1.343-2.99l4.361-3.877c1.874-1.665 2.19-4.477.733-6.518z" fill="#ffecdb"/><g fill="#bcd99b"><path d="m42.857 19.25h-1.893c-.414 0-.75-.336-.75-.75 0-.414.336-.75.75-.75h1.893c.414 0 .75.336.75.75 0 .414-.336.75-.75.75z"/><path d="m39.679 28.75h-5.893c-.414 0-.75-.336-.75-.75 0-.414.336-.75.75-.75h5.893c.414 0 .75.336.75.75 0 .414-.336.75-.75.75z"/><path d="m22.381 18.5h-.893c-.414 0-.75-.336-.75-.75 0-.414.336-.75.75-.75h.893c.414 0 .75.336.75.75 0 .414-.336.75-.75.75z"/><path d="m36.857 10.25h-1.893c-.414 0-.75-.336-.75-.75 0-.414.336-.75.75-.75h1.893c.414 0 .75.336.75.75 0 .414-.336.75-.75.75z"/><circle cx="44.987" cy="18.5" r=".679"/><circle cx="39.121" cy="9.571" r=".679"/><circle cx="31.447" cy="27.929" r=".679"/><circle cx="19.489" cy="17.75" r=".679"/></g><path d="m38.447 51.167c-1.026.745-1.613 1.814-1.613 2.936v7.897h1.166v-8.204c0-1.143.489-2.231 1.343-2.99l1.786-1.588z" fill="#e6cdb8"/><path d="m20.896 48.221c-.775-.888-1.24-1.917-1.369-2.981h-.061c.106 1.064.487 2.093 1.121 2.981l2.261 3.166c.749 1.049 1.152 2.306 1.152 3.595v7.018h1.066v-7.018c0-1.289-.492-2.546-1.407-3.595z" fill="#e6cdb8"/><path d="m40.949 37.378c-1.016-.087-2.025.099-2.949.52v-2.898c0-.552-.447-1-1-1s-1 .448-1 1v3.882l-.236.118h-2.565c-.068 0-.131.016-.198.02v-4.02c0-.552-.447-1-1-1s-1 .448-1 1v4h-3v-3.5c0-.552-.447-1-1-1s-1 .448-1 1v3.5h-1.279l-.772-2.316c-.174-.523-.737-.808-1.265-.632-.523.175-.807.741-.632 1.265l1 3c.134.408.516.683.947.683h3 3.238c-.151.371-.238.774-.238 1.198 0 1.135.604 2.157 1.53 2.726-.982.882-1.669 2.076-1.896 3.407-.094.544.272 1.061.817 1.154.057.01.113.014.169.014.479 0 .901-.344.984-.832.231-1.352 1.168-2.499 2.447-2.995l.073-.028 1.678.336c.067.014.133.02.198.02.154 0 .308-.036.447-.105l2-1c.494-.247.694-.848.447-1.342s-.848-.693-1.342-.447l-1.693.847-2.896-.579c-.558-.113-.963-.607-.963-1.176 0-.66.537-1.198 1.198-1.198h2.802c.155 0 .309-.036.447-.105l2.25-1.125c.645-.323 1.369-.461 2.08-.399.559.055 1.034-.361 1.082-.911s-.36-1.035-.91-1.082z" fill="#e6cdb8"/><path d="m58.625 9v-2h2c.553 0 1-.448 1-1s-.447-1-1-1h-2v-2c0-.552-.447-1-1-1s-1 .448-1 1v2h-2c-.553 0-1 .448-1 1s.447 1 1 1h2v2c0 .552.447 1 1 1s1-.448 1-1z" fill="#6e94c4"/><path d="m8 44h-2v-2c0-.552-.447-1-1-1s-1 .448-1 1v2h-2c-.553 0-1 .448-1 1s.447 1 1 1h2v2c0 .552.447 1 1 1s1-.448 1-1v-2h2c.553 0 1-.448 1-1s-.447-1-1-1z" fill="#6e94c4"/><path d="m55 56h-2v-2c0-.552-.447-1-1-1s-1 .448-1 1v2h-2c-.553 0-1 .448-1 1s.447 1 1 1h2v2c0 .552.447 1 1 1s1-.448 1-1v-2h2c.553 0 1-.448 1-1s-.447-1-1-1z" fill="#6e94c4"/><path d="m62 44h-2c-.553 0-1 .448-1 1s.447 1 1 1h2c.553 0 1-.448 1-1s-.447-1-1-1z" fill="#6e94c4"/><path d="m14 60h-2c-.553 0-1 .448-1 1s.447 1 1 1h2c.553 0 1-.448 1-1s-.447-1-1-1z" fill="#6e94c4"/><path d="m8 4h-2v-2c0-.552-.447-1-1-1s-1 .448-1 1v2h-2c-.553 0-1 .448-1 1s.447 1 1 1h2v2c0 .552.447 1 1 1s1-.448 1-1v-2h2c.553 0 1-.448 1-1s-.447-1-1-1z" fill="#6e94c4"/><path d="m43.987 5h2c.553 0 1-.448 1-1s-.447-1-1-1h-2c-.553 0-1 .448-1 1s.448 1 1 1z" fill="#6e94c4"/></svg>