<svg height="512pt" viewBox="0 0 512 511" width="512pt" xmlns="http://www.w3.org/2000/svg"><path d="m140.363281 372.351562h-.019531c-14.507812 0-26.265625-11.757812-26.265625-26.265624v-40.53125h52.550781v40.53125c0 14.507812-11.761718 26.265624-26.265625 26.265624zm0 0" fill="#999"/><path d="m140.363281 372.351562h-.019531c-14.507812 0-26.265625-11.757812-26.265625-26.265624v-40.53125h52.550781v40.53125c0 14.507812-11.761718 26.265624-26.265625 26.265624zm0 0" fill="#999"/><path d="m140.363281 372.351562h-.019531c-14.507812 0-26.265625-11.757812-26.265625-26.265624v-40.53125h52.550781v40.53125c0 14.507812-11.761718 26.265624-26.265625 26.265624zm0 0" fill="#39474f"/><path d="m371.660156 372.351562h-.023437c-14.503907 0-26.265625-11.757812-26.265625-26.265624v-40.53125h52.550781v40.53125c0 14.507812-11.757813 26.265624-26.261719 26.265624zm0 0" fill="#39474f"/><path d="m356 235.585938h-200v-45.484376c0-32.171874 26.078125-58.253906 58.25-58.253906h83.496094c32.171875 0 58.253906 26.082032 58.253906 58.253906zm0 0" fill="#35ad34"/><path d="m297.722656 131.847656h-39.476562v103.738282h97.753906v-45.511719c0-32.15625-26.09375-58.226563-58.277344-58.226563zm0 0" fill="#2c8f2b"/><path d="m326 215.671875h-129.875l-10.125-27.796875c0-17.796875 14.441406-32.226562 32.257812-32.226562h75.484376c17.816406 0 32.257812 14.425781 32.257812 32.226562zm0 0" fill="#cafcfb"/><path d="m293.742188 155.648438h-40c17.816406 0 32.257812 14.425781 32.257812 32.226562v27.796875h40v-27.796875c0-17.800781-14.441406-32.226562-32.257812-32.226562zm0 0" fill="#abd6d3"/><path d="m397.921875 324.53125h-283.84375v-57.203125c0-33.121094 26.851563-59.972656 59.972656-59.972656h163.898438c33.121093 0 59.972656 26.851562 59.972656 59.972656zm0 0" fill="#35ad34"/><path d="m337.921875 207.355469h-40c33.136719 0 60 26.839843 60 59.949219v57.226562h40v-57.226562c0-33.109376-26.863281-59.949219-60-59.949219zm0 0" fill="#2c8f2b"/><path d="m177.515625 269.554688c0-9.679688-7.851563-17.527344-17.542969-17.527344-9.6875 0-17.542968 7.847656-17.542968 17.527344 0 9.679687 7.855468 17.527343 17.542968 17.527343 9.691406 0 17.542969-7.847656 17.542969-17.527343zm0 0" fill="#f0c33c"/><path d="m369.570312 269.554688c0-9.679688-7.855468-17.527344-17.542968-17.527344-9.691406 0-17.542969 7.847656-17.542969 17.527344 0 9.679687 7.851563 17.527343 17.542969 17.527343 9.6875 0 17.542968-7.847656 17.542968-17.527343zm0 0" fill="#f0c33c"/><path d="m256 .5c-141.386719 0-256 114.515625-256 255.773438 0 141.261718 114.613281 255.773437 256 255.773437s256-114.511719 256-255.773437c0-141.257813-114.613281-255.773438-256-255.773438zm-216.117188 255.773438c0-52.304688 18.613282-100.261719 49.585938-137.625l304.28125 304.011718c-37.398438 30.941406-85.398438 49.539063-137.75 49.539063-119.359375 0-216.117188-96.671875-216.117188-215.925781zm382.191407 138.167968-304.363281-304.09375c37.476562-31.214844 85.683593-50 138.289062-50 119.359375 0 216.117188 96.671875 216.117188 215.925782 0 52.558593-18.800782 100.726562-50.042969 138.167968zm0 0" fill="#e5554e"/><path d="m256 .5c-6.710938 0-13.359375.261719-19.941406.769531 130.183594 10.019531 233.082031 117.335938 235.984375 249.285157.097656 3.71875.101562 7.441406.003906 11.164062-2.765625 132.074219-105.710937 239.53125-235.988281 249.5625 6.578125.503906 13.230468.765625 19.941406.765625 141.386719 0 256-114.511719 256-255.773437 0-141.257813-114.613281-255.773438-256-255.773438zm0 0" fill="#c62430"/></svg>