<svg id="Layer_1" enable-background="new 0 0 509.94 509.94" height="512" viewBox="0 0 509.94 509.94" width="512" xmlns="http://www.w3.org/2000/svg"><g><path d="m197.855 89.94h180v420h-180z" fill="#e8e6f2"/><path d="m17.855 89.94h180v420h-180z" fill="#fff5f5"/><path d="m197.855 179.94h120v30h-120z" fill="#08475e"/><path d="m77.855 179.94h120v30h-120z" fill="#0a617d"/><path d="m77.855 239.94h60v30h-60z" fill="#0a617d"/><path d="m197.855 239.94h120v30h-120z" fill="#08475e"/><path d="m167.855 239.94h30v30h-30z" fill="#0a617d"/><path d="m77.855 299.94h60v30h-60z" fill="#0a617d"/><path d="m197.855 299.94h120v30h-120z" fill="#08475e"/><g fill="#0a617d"><path d="m167.855 299.94h30v30h-30z"/><path d="m77.855 359.94h60v30h-60z"/><path d="m77.855 419.94h60v30h-60z"/></g><path d="m197.855 359.94h105.77v30h-105.77z" fill="#08475e"/><path d="m167.855 359.94h30v30h-30z" fill="#0a617d"/><path d="m492.085 149.97c0 5.55-1.54 11.16-4.76 16.18l-175.55 270.54-44.14 13.25 210.64-325.24h.01c8.93 5.72 13.8 15.39 13.8 25.27z" fill="#d00050"/><path d="m478.275 124.7-210.64 325.24h-.01l-6.34-45.66 175.54-270.54c8.95-13.94 27.5-17.99 41.45-9.04z" fill="#ff4a4a"/><path d="m317.855 68.94v51h-120v-119.94h41.69l15 45h39.37c13.2 0 23.94 10.74 23.94 23.94z" fill="#ffbf80"/><path d="m197.855 0v119.94h-120v-51c0-13.2 10.74-23.94 23.94-23.94h39.37l15-45z" fill="#ffe666"/></g></svg>