<svg id="Capa_1" enable-background="new 0 0 512 512" height="512" viewBox="0 0 512 512" width="512" xmlns="http://www.w3.org/2000/svg"><g><path d="m361 30h-150-150c-8.292 0-15 6.708-15 15v422c0 8.292 6.708 15 15 15h150 150c8.292 0 15-6.708 15-15v-422c0-8.292-6.708-15-15-15z" fill="#4b2746"/><path d="m376 467v-422c0-8.292-6.708-15-15-15h-150v452h150c8.292 0 15-6.708 15-15z" fill="#351b33"/><path d="m241 60-30-15-30 15h-105v392h135 135v-392z" fill="#edf5ff"/><path d="m346 60h-105l-30-15v407h135z" fill="#d0e4e7"/><g><path d="m452.84 435.214-156.798-156.799-15.285.285-24.029 24.033-18.102 18.099-6.217 21.216 156.798 156.798c17.547 17.547 46.101 17.529 63.633 0 17.547-17.549 17.547-46.086 0-63.632z" fill="#e64d2e"/></g><g><path d="m452.84 435.214-156.798-156.799-15.285.285-24.029 24.033 196.112 196.113c17.547-17.549 17.547-46.086 0-63.632z" fill="#cc2929"/></g><g><path d="m211.241 241.809c-3.968-.015-8.126 1.479-11.042 4.395s-4.513 6.915-4.395 11.043c.939 32.022 13.943 62.139 36.605 84.801l31.819-31.815 31.814-31.818c-22.647-22.647-52.764-35.64-84.801-36.606z" fill="#fdc"/></g><g><path d="m211.241 241.809c-3.968-.015-8.126 1.479-11.042 4.395l64.029 64.029 31.814-31.818c-22.647-22.647-52.764-35.64-84.801-36.606z" fill="#fa9"/></g><g fill="#d0e4e7"><path d="m121 151h90 90c8.292 0 15-6.708 15-15s-6.708-15-15-15h-90-90c-8.292 0-15 6.708-15 15s6.708 15 15 15z"/><path d="m301 181h-90-90c-8.292 0-15 6.708-15 15s6.708 15 15 15h90 90c8.292 0 15-6.708 15-15s-6.708-15-15-15z"/></g><path d="m316 136c0-8.292-6.708-15-15-15h-90v30h90c8.292 0 15-6.708 15-15z" fill="#a8d3d8"/><path d="m316 196c0-8.292-6.708-15-15-15h-90v30h90c8.292 0 15-6.708 15-15z" fill="#a8d3d8"/><path d="m256 0h-45-45c-8.283 0-15 6.714-15 15v15c0 16.566 13.431 30 30 30h30 30c16.569 0 30-13.434 30-30v-15c0-8.286-6.717-15-15-15z" fill="#fed843"/><path d="m271 30v-15c0-8.286-6.717-15-15-15h-45v60h30c16.569 0 30-13.434 30-30z" fill="#fabe2c"/><g><path d="m181 392h-60c-8.292 0-15-6.708-15-15s6.708-15 15-15h60c8.292 0 15 6.708 15 15s-6.708 15-15 15z" fill="#d0e4e7"/></g></g></svg>