<svg id="Capa_1" enable-background="new 0 0 510 510" height="512" viewBox="0 0 510 510" width="512" xmlns="http://www.w3.org/2000/svg"><g><path d="m255 1.896c-7.383 5.907-247.605 198.084-255 204v302.209h510v-302.209z" fill="#ffe5b3"/><path d="m506.46 203.065c-9.356 8.198-165.798 145.28-178.5 156.41l-72.96-58.37-72.96 58.37-178.5-156.41c125.159-100.124 112.472-89.975 251.46-201.17z" fill="#00c6cd"/><path d="m506.46 203.065c-9.356 8.198-165.798 145.28-178.5 156.41l-72.96-58.37v-299.21z" fill="#00b5bc"/><path d="m438 282.995-86.68 75.96 13.05 10.44-18.74 23.42c-108.821 9.378-67.056 5.777-187.67 16.18l-70.96-132.8h-15v-182.09h366z" fill="#eef4ff"/><path d="m438 282.995-86.68 75.96 13.05 10.44-18.74 23.42-90.63 7.81v-306.52h183z" fill="#d9e6fc"/><path d="m312.33 257.165c-65.36 65.052-56.523 56.253-57.35 57.08l-57.55-57.03c-18.69-18.69-18.69-49.02-.05-67.67 15.95-15.933 39.749-17.897 57.48-7.75 6.253-3.721 14.772-6.24 23.67-6.24 42.245 0 63.985 51.424 33.8 81.61z" fill="#f87eb8"/><path d="m312.33 257.165-57.33 57.06v-132.51c17.839-10.125 41.513-7.97 57.33 7.83 18.64 18.65 18.64 48.98 0 67.62z" fill="#f96192"/><path d="m506.46 203.065c-216.043 189.302-131.936 115.616-178.5 156.41l-72.96-58.37-72.96 58.37c-19.862-17.401-173.114-151.69-178.5-156.41l-3.54 2.83v302.21h510v-302.21z" fill="#00e6ef"/><path d="m510 205.895v302.21h-255v-207l72.96 58.37c19.916-17.449 35.38-31.005 178.5-156.41z" fill="#00c6cd"/><path d="m510 485.895v22.21h-20.26l-234.74-187.79-234.74 187.79h-20.26v-22.21c201.451-161.156 153.217-122.568 255-204 102.914 82.336 58.503 46.807 255 204z" fill="#00c6cd"/><path d="m510 485.895v22.21h-20.26l-234.74-187.79v-38.42c102.914 82.336 58.503 46.807 255 204z" fill="#00b5bc"/></g></svg>