<?xml version="1.0" encoding="iso-8859-1"?>
<!-- Generator: Adobe Illustrator 19.0.0, SVG Export Plug-In . SVG Version: 6.00 Build 0)  -->
<svg version="1.1" id="Capa_1" xmlns="http://www.w3.org/2000/svg" xmlns:xlink="http://www.w3.org/1999/xlink" x="0px" y="0px"
	 viewBox="0 0 512 512" style="enable-background:new 0 0 512 512;" xml:space="preserve">
<path style="fill:#F3F1F1;" d="M360,0H8C3.582,0,0,3.582,0,8v408c0,2.122,93.878,96,96,96h264c4.418,0,8-3.582,8-8V8
	C368,3.582,364.418,0,360,0z"/>
<path style="fill:#E6E3E2;" d="M0,8v408h16V8c0-4.418,3.582-8,8-8H8C3.582,0,0,3.582,0,8z"/>
<g>
	<path style="fill:#CDC6C5;" d="M232,184H64c-4.418,0-8-3.582-8-8s3.582-8,8-8h168c4.418,0,8,3.582,8,8S236.418,184,232,184z"/>
	<path style="fill:#CDC6C5;" d="M152,248H64c-4.418,0-8-3.582-8-8s3.582-8,8-8h88c4.418,0,8,3.582,8,8S156.418,248,152,248z"/>
	<path style="fill:#CDC6C5;" d="M304,248H176c-4.418,0-8-3.582-8-8s3.582-8,8-8h128c4.418,0,8,3.582,8,8S308.418,248,304,248z"/>
	<path style="fill:#CDC6C5;" d="M120,312H64c-4.418,0-8-3.582-8-8s3.582-8,8-8h56c4.418,0,8,3.582,8,8S124.418,312,120,312z"/>
	<path style="fill:#CDC6C5;" d="M304,312H144c-4.418,0-8-3.582-8-8s3.582-8,8-8h160c4.418,0,8,3.582,8,8S308.418,312,304,312z"/>
	<path style="fill:#CDC6C5;" d="M248,88H120c-4.418,0-8-3.582-8-8s3.582-8,8-8h128c4.418,0,8,3.582,8,8S252.418,88,248,88z"/>
	<path style="fill:#CDC6C5;" d="M216,376h-80c-4.418,0-8-3.582-8-8s3.582-8,8-8h80c4.418,0,8,3.582,8,8S220.418,376,216,376z"/>
	<path style="fill:#CDC6C5;" d="M176,408h-64c-4.418,0-8-3.582-8-8s3.582-8,8-8h64c4.418,0,8,3.582,8,8S180.418,408,176,408z"/>
	<path style="fill:#CDC6C5;" d="M248,408h-48c-4.418,0-8-3.582-8-8s3.582-8,8-8h48c4.418,0,8,3.582,8,8S252.418,408,248,408z"/>
	<path style="fill:#CDC6C5;" d="M96,136H64c-4.418,0-8-3.582-8-8s3.582-8,8-8h32c4.418,0,8,3.582,8,8S100.418,136,96,136z"/>
	<path style="fill:#CDC6C5;" d="M208,136h-80c-4.418,0-8-3.582-8-8s3.582-8,8-8h80c4.418,0,8,3.582,8,8S212.418,136,208,136z"/>
	<path style="fill:#CDC6C5;" d="M304,184h-48c-4.418,0-8-3.582-8-8s3.582-8,8-8h48c4.418,0,8,3.582,8,8S308.418,184,304,184z"/>
</g>
<path style="fill:#DAD5D4;" d="M0,416h88c4.418,0,8,3.582,8,8v88L0,416z"/>
<path style="fill:#FF9C38;" d="M143.921,408.079c-2.047,0-4.094-0.781-5.657-2.343c-3.124-3.124-3.125-8.189,0-11.313l11.313-11.314
	c3.124-3.125,8.189-3.124,11.314-0.001c3.124,3.124,3.125,8.189,0,11.313l-11.313,11.314
	C148.017,407.298,145.969,408.079,143.921,408.079z"/>
<path style="fill:#FFDFA7;" d="M181.859,307.4c2.649-0.562,5.403,0.254,7.318,2.169l45.255,45.255
	c1.915,1.915,2.731,4.669,2.169,7.318s-2.427,4.834-4.954,5.806l-73.539,28.284c-2.951,1.135-6.293,0.426-8.529-1.81
	s-2.944-5.578-1.81-8.529l28.284-73.539C177.025,309.827,179.21,307.962,181.859,307.4z"/>
<path style="fill:#FFD791;" d="M220.332,356.634c2.527-0.972,4.392-3.157,4.954-5.806s-0.254-5.403-2.169-7.318l11.314,11.314
	c1.915,1.915,2.731,4.669,2.169,7.318s-2.427,4.834-4.954,5.806l-73.539,28.284c-2.951,1.135-6.293,0.426-8.529-1.81
	s-2.944-5.578-1.81-8.529l0.609-1.584L220.332,356.634z"/>
<path style="fill:#FFC44F;" d="M500.303,43.697c15.596,15.596,15.596,40.973,0,56.569L234.431,366.138l-56.569-56.569
	L443.735,43.697C459.33,28.101,484.707,28.101,500.303,43.697z"/>
<path style="fill:#FFB357;" d="M494.077,38.609c2.201,1.456,4.289,3.151,6.226,5.088c15.596,15.596,15.596,40.973,0,56.569
	L234.431,366.138l-11.314-11.314L488.989,88.952C502.648,75.293,504.344,54.132,494.077,38.609z"/>
<path style="fill:#82716F;" d="M319.284,142.207c-6.996,0-10.582-8.732-5.657-13.657l90.51-90.51c3.124-3.123,8.189-3.123,11.313,0
	l22.627,22.627c3.125,3.124,3.125,8.189,0,11.314c-3.124,3.123-8.189,3.123-11.313,0L409.793,55.01l-84.853,84.854
	C323.378,141.426,321.331,142.207,319.284,142.207z"/>
<path style="fill:#FF7883;" d="M500.976,44.386c15.076,15.806,14.241,40.964-1.204,56.41L387.166,213.403l-56.569-56.569
	L443.735,43.697C459.557,27.875,485.446,28.104,500.976,44.386z"/>
<g>
	<path style="fill:#DB5E6F;" d="M494.047,38.602c2.468,1.629,4.799,3.55,6.93,5.784c15.076,15.806,14.242,40.964-1.204,56.41
		L387.166,213.403l-11.314-11.314L488.459,89.482C502.207,75.734,504.367,54.296,494.047,38.602z"/>
	<path style="fill:#DB5E6F;" d="M449.392,102.608c-2.048,0-4.095-0.781-5.657-2.344c-3.124-3.124-3.124-8.189,0-11.313l5.657-5.656
		c3.125-3.123,8.189-3.123,11.314,0.001c3.124,3.124,3.124,8.189,0,11.313l-5.657,5.656
		C453.486,101.827,451.439,102.608,449.392,102.608z"/>
	<path style="fill:#DB5E6F;" d="M426.764,125.236c-2.047,0-4.094-0.781-5.657-2.343c-3.124-3.124-3.125-8.189,0-11.313l5.657-5.657
		c3.124-3.125,8.189-3.124,11.314-0.001c3.124,3.124,3.125,8.189,0,11.313l-5.657,5.657
		C430.859,124.455,428.812,125.236,426.764,125.236z"/>
	<path style="fill:#DB5E6F;" d="M404.137,147.863c-2.048,0-4.095-0.781-5.657-2.344c-3.124-3.124-3.124-8.189,0-11.313l5.657-5.656
		c3.125-3.123,8.189-3.123,11.314,0.001c3.124,3.124,3.124,8.189,0,11.313l-5.657,5.656
		C408.231,147.082,406.184,147.863,404.137,147.863z"/>
</g>
<g>
</g>
<g>
</g>
<g>
</g>
<g>
</g>
<g>
</g>
<g>
</g>
<g>
</g>
<g>
</g>
<g>
</g>
<g>
</g>
<g>
</g>
<g>
</g>
<g>
</g>
<g>
</g>
<g>
</g>
</svg>
