<svg id="Layer_1" enable-background="new 0 0 512.076 512.076" height="512" viewBox="0 0 512.076 512.076" width="512" xmlns="http://www.w3.org/2000/svg"><g><g clip-rule="evenodd" fill-rule="evenodd"><g fill="#ffdcd5"><path d="m189.263 193.408-17.702 10.22c-9.664 5.579-13.727 20.4-9.236 32.425l26.938 90.554v175.469h144.613c0-20.921 0-120.46 0-141.381 0-44.557 17.703-58.54 17.703-110.995 0-19.164 0-34.341 0-49.395 0 11.205-9.084 20.289-20.29 20.29-11.184 0-20.254-9.049-20.289-20.225v17.638c0 11.205-9.084 20.29-20.289 20.29-11.184 0-20.255-9.049-20.29-20.225 0-.021 0-.043 0-.064v-83.969-11.439c0-11.156-9.13-20.289-20.289-20.289-11.16 0-20.29 9.13-20.29 20.289v11.439c0-11.161-9.13-20.29-20.29-20.29-11.159 0-20.29 9.129-20.29 20.289v57.643z"/><path d="m270.421 134.04v83.969.079c.043 11.169 9.11 20.211 20.29 20.211 11.205 0 20.289-9.084 20.289-20.29v-17.638c0-.022 0-.043 0-.064l.001-52.24c0-4.675 0-9.35 0-14.026 0-11.157-9.13-20.289-20.29-20.289-11.16-.002-20.29 9.128-20.29 20.288z"/><path d="m311 148.065v52.24.079c.042 11.169 9.097 20.211 20.289 20.211 11.193 0 20.29-9.084 20.29-20.29v-17.639c0-.021 0-.042 0-.064l.001-20.511c0-4.675 0-9.35 0-14.026 0-11.157-9.13-20.289-20.29-20.289s-20.29 9.13-20.29 20.289z"/></g><path d="m189.263 191.682v-57.642c0-11.161 9.13-20.29 20.29-20.289 11.16 0 20.29 9.129 20.29 20.29v-11.439c0-11.16 9.13-20.29 20.29-20.289 11.159 0 20.289 9.133 20.289 20.289v11.439c0-11.159 9.13-20.289 20.29-20.289 11.159 0 20.29 9.132 20.29 20.289v13.873c.082-11.09 9.18-20.137 20.289-20.137 11.159 0 20.29 9.133 20.29 20.289v52.24 49.395c0 42.99-11.891 60.139-16.182 89.455 90.876-72.117 195.422-208.93 107.385-296.686-43.331-43.193-114.234-43.192-157.564 0-17.368 17.313-42.796 15.514-58.359 0-43.33-43.192-114.234-43.193-157.565 0-92.135 91.842 26.661 237.417 119.968 306.328v-22.19l-26.938-90.554c-4.491-12.025-.428-26.846 9.236-32.425l17.702-10.22z" fill="#ff5d7d"/></g><g><path d="m86.629 112.077c.757-5.471-3.064-10.519-8.535-11.276-5.469-.755-10.519 3.064-11.276 8.535-2.328 16.825.485 35.866 8.363 56.593 1.518 3.994 5.317 6.45 9.35 6.45 1.18 0 2.382-.211 3.551-.655 5.163-1.962 7.757-7.738 5.795-12.9-6.673-17.556-9.111-33.283-7.248-46.747z"/><path d="m449.843 35.387c-47.333-47.183-124.351-47.183-171.684 0-14.369 14.321-33.518 10.689-44.239 0-47.334-47.183-124.351-47.183-171.685 0-26.508 26.424-38.559 58.618-35.818 95.689 2.827 38.232 22.038 81.82 55.557 126.053 26.599 35.101 61.014 69.255 97.29 96.656v148.292c0 5.523 4.477 10 10 10h144.613c2.652 0 5.196-1.054 7.071-2.929s2.929-4.419 2.929-7.071v-141.38c0-5.935.346-11.295.931-16.287 35.058-28.294 67.572-62.303 91.797-96.098 30.605-42.697 47.166-82.992 49.221-119.763 2.012-36.012-10.094-67.355-35.983-93.162zm-125.967 456.689h-124.613v-165.468c0-.965-.14-1.926-.415-2.851l-26.938-90.555c-.065-.218-.137-.434-.217-.647-3.069-8.219.039-17.478 4.868-20.266l50.074-28.911c4.915-2.837 11.219-1.146 14.055 3.767 3.118 5.4.103 11.448-4.317 14.397-8.379 5.592-20.94 14.667-28.719 21.377-4.182 3.607-4.647 9.922-1.04 14.104s9.922 4.647 14.104 1.04c1.055-.91 2.228-1.883 3.489-2.9 4.387 6.292 10.979 12.718 18.442 19.992 25.393 24.748 43.659 45.683 29.098 70.903-2.762 4.783-1.123 10.899 3.66 13.66 4.783 2.762 10.899 1.123 13.66-3.66 21.719-37.617-5.413-68.502-27.24-90.111 3.175-1.334 6.075-3.194 8.594-5.47 5.374 4.858 12.492 7.821 20.29 7.821 13.164 0 24.388-8.444 28.555-20.199 3.689 1.602 7.753 2.495 12.024 2.495 3.611 0 7.075-.638 10.289-1.802v20.908c0 25.904-4.582 42.035-9.012 57.634-4.273 15.043-8.691 30.599-8.691 53.362zm17.703-291.771c0 5.673-4.616 10.289-10.289 10.29-5.674 0-10.29-4.616-10.29-10.29v-52.23c0-.003 0-.006 0-.01 0-2.726 1.076-5.304 3.031-7.258 1.955-1.955 4.532-3.031 7.258-3.031 5.674 0 10.29 4.616 10.29 10.29zm-40.578-52.24v69.943c0 5.674-4.616 10.29-10.29 10.29-5.672 0-10.286-4.613-10.29-10.283 0-.002 0-.004 0-.006 0-.003 0-.006 0-.01v-83.959c0-5.673 4.616-10.289 10.289-10.289 5.674 0 10.29 4.616 10.29 10.289v14.016c.001.003.001.006.001.009zm-50.869 80.233c-3.993 0-7.474-2.287-9.176-5.642 2.306-1.622 4.524-3.146 6.518-4.477 6.36-4.243 10.764-10.169 12.947-16.678v16.508.006c-.004 5.671-4.618 10.283-10.289 10.283zm10.289-94.259v48.406c-.618-1.807-1.418-3.582-2.41-5.301-4.133-7.158-10.768-11.987-18.168-14.032v-29.072-11.438c0-2.726 1.077-5.304 3.031-7.259s4.532-3.031 7.258-3.031c5.674 0 10.29 4.616 10.29 10.289v11.438zm-40.579 30.419c-1.086.467-2.158.994-3.207 1.599l-17.372 10.03v-42.047c0-5.674 4.616-10.29 10.29-10.29s10.29 4.616 10.29 10.29v30.418zm246.015-37.027c-3.608 64.545-59.455 135.707-113.821 184.558 4.523-15.933 9.543-34.077 9.543-62.289v-101.635c0-16.702-13.588-30.29-30.29-30.29-4.686 0-9.215 1.065-13.311 3.081-4.91-10.116-15.288-17.106-27.268-17.106-5.205 0-10.108 1.32-14.392 3.642-5.253-9.012-15.025-15.081-26.187-15.081h-.001c-8.068 0-15.668 3.157-21.4 8.889-1.879 1.879-3.482 3.96-4.788 6.192-4.283-2.322-9.186-3.642-14.391-3.642-16.702 0-30.29 13.588-30.29 30.29v53.594l-12.702 7.334c-13.629 7.869-19.742 27.648-13.731 44.239l26.433 88.856v.321c-30.168-24.445-59.155-54.048-81.349-83.335-31.184-41.151-49.01-81.072-51.552-115.448-2.292-30.995 7.799-57.927 29.992-80.049 39.548-39.422 103.897-39.423 143.445 0 20.322 20.256 52.158 20.256 72.479 0 39.546-39.421 103.896-39.422 143.444 0 21.679 21.606 31.818 47.809 30.137 77.879z"/><path d="m97.534 60.799h-.007c-5.523 0-9.996 4.477-9.996 10s4.48 10 10.003 10 10-4.477 10-10-4.477-10-10-10z"/></g></g></svg>